<svg width="118" height="110" viewBox="0 0 118 110" fill="none" xmlns="http://www.w3.org/2000/svg">
<path d="M51.118 109.185L54.157 91.0294L51.915 83.8794L60.208 77.9754L68.501 83.8794L66.259 91.0294L69.298 109.185H117.802L109.772 85.7984C107.087 77.9794 100.74 71.9764 92.787 69.7214C84.229 67.2954 75.118 65.6114 72.429 65.1354C72.476 65.1854 72.527 65.2394 72.577 65.2864L59.718 75.9274L46.114 65.2864C46.173 65.2304 46.229 65.1714 46.285 65.1094C43.702 65.5494 33.988 67.2744 25.008 69.7784C17.039 72.0014 10.693 78.0354 8.007 85.8604L0 109.186H51.118V109.185Z" fill="#837F7F"/>
<path d="M73.4014 64.4455C71.4484 62.5405 70.3564 56.6895 70.0134 52.2595L69.9834 51.8695L68.0513 55.9395C68.4913 58.9165 69.3363 62.7825 70.9223 65.1275L59.6954 74.4165L47.7874 65.1015C49.6984 62.2545 50.5284 57.1945 50.8704 54.1855L48.7524 51.2695L48.6784 52.2595C48.3354 56.6895 47.2454 62.5405 45.2874 64.4425L44.3184 65.3875L59.7354 77.4495L74.3403 65.3615L73.4014 64.4455Z" fill="#837F7F"/>
<path d="M81.893 23.4612L77.888 28.9222L77.894 23.8302C77.894 23.8302 71.464 18.2572 70.197 15.5632C66.762 16.6712 63.197 17.2232 59.632 17.2232C56.068 17.2232 52.503 16.6712 49.068 15.5632C48.454 16.8692 46.546 18.9362 44.791 20.6732C43.04 22.4092 41.439 23.8212 41.439 23.8212V23.8272C41.439 23.8302 41.436 23.8302 41.436 23.8302V30.0592L36.601 23.4612C36.601 23.4612 36.126 5.50118 45.264 4.76218C45.264 4.76218 49.437 0.551181 58.017 0.048181V0.00718068C58.436 -0.00181932 58.844 -0.00181767 59.248 0.00418233C59.65 -0.00181767 60.057 -0.00181932 60.477 0.00718068V0.048181C69.057 0.550181 73.23 4.76218 73.23 4.76218C82.368 5.50118 81.893 23.4612 81.893 23.4612Z" fill="#837F7F"/>
<path d="M59.8009 57.5621L59.4659 57.5581C50.4149 56.7881 45.6699 52.0711 43.2829 48.2481C40.7079 44.1241 40.2799 40.2061 40.2629 40.0421L40.2569 39.9211L40.2539 23.1901L40.6889 22.9071C42.4429 21.3571 47.0829 17.0101 47.9999 15.0611L48.4419 14.1211L49.4309 14.4401C56.1049 16.5921 63.1599 16.5921 69.8349 14.4401L70.8239 14.1211L71.2659 15.0611C72.2179 17.0831 76.9329 21.4331 78.6699 22.9371L79.0779 23.2911L79.0549 40.0411C79.0379 40.2061 78.6099 44.1241 76.0349 48.2471C73.6479 52.0691 68.9029 56.7871 59.8519 57.5571L59.8009 57.5621ZM59.6159 55.2001H59.6989C74.6889 53.8961 76.5639 40.9561 76.6959 39.8551L76.7119 24.3681C75.3419 23.1571 71.3499 19.5331 69.6469 16.9711C63.0739 18.9031 56.1869 18.9021 49.6129 16.9711C47.9279 19.4931 43.9649 23.1441 42.6149 24.3561L42.6179 39.8561C42.7499 40.9461 44.6209 53.8951 59.6159 55.2001Z" fill="#837F7F"/>
<path d="M41.438 38.2802C37.833 38.0342 37.393 36.3412 37.469 34.4422C37.548 32.4752 36.835 30.4342 35.642 25.7722C34.452 21.1102 40.885 23.5142 40.885 23.5142L41.434 24.8752L41.438 38.2802Z" fill="#837F7F"/>
<path d="M82.998 25.7722C81.81 30.4342 81.096 32.4752 81.175 34.4422C81.246 36.2132 80.868 37.8092 77.895 38.2132L77.911 23.8312C77.911 23.8312 77.838 23.7742 77.709 23.6692L77.771 23.5142C77.771 23.5142 84.185 21.1102 82.998 25.7722Z" fill="#837F7F"/>
<path d="M69.1653 54.2739C69.1653 54.2739 64.6363 62.1499 53.2163 61.1659L50.5583 70.3219L46.1143 65.2919L49.6723 53.5859C49.6723 53.5849 60.4033 58.3099 69.1653 54.2739Z" fill="#837F7F"/>
<circle cx="103" cy="16" r="15" fill="white"/>
<path d="M114 22C114 22.5304 113.789 23.0391 113.414 23.4142C113.039 23.7893 112.53 24 112 24H94C93.4696 24 92.9609 23.7893 92.5858 23.4142C92.2107 23.0391 92 22.5304 92 22V11C92 10.4696 92.2107 9.96086 92.5858 9.58579C92.9609 9.21071 93.4696 9 94 9H98L100 6H106L108 9H112C112.53 9 113.039 9.21071 113.414 9.58579C113.789 9.96086 114 10.4696 114 11V22Z" stroke="#837F7F" stroke-width="2" stroke-linecap="round" stroke-linejoin="round"/>
<path d="M103 20C105.209 20 107 18.2091 107 16C107 13.7909 105.209 12 103 12C100.791 12 99 13.7909 99 16C99 18.2091 100.791 20 103 20Z" stroke="#837F7F" stroke-width="2" stroke-linecap="round" stroke-linejoin="round"/>
</svg>
